<?xml version="1.0" encoding="UTF-8"?><svg id="Livello_2" xmlns="http://www.w3.org/2000/svg" viewBox="0 0 403.24941 408.23949"><defs><style>.cls-1{fill:#c9703b;stroke:#c9703b;stroke-miterlimit:10;}</style></defs><g id="_1"><path class="cls-1" d="m325.86688.66118c-9.86654-2.32041-35.94009,20.20961-77.31753,80.77624-16.64697,24.36716-75.093,52.32542-104.20155,74.55209-25.52939,19.4937-40.93999,36.77126-53.15,63.48134-11.67648,25.54295-24.14554,105.50033,21.30972,142.83317,10.96369,9.00458,31.16813-.09815,21.10161-8.99085-35.20038-31.09578-33.34078-90.76433-18.58285-127.92444,3.03145-7.63313,14.50241-31.97895,47.41161-54.57335,25.69842-17.6437,83.31813-47.81411,100.39801-70.2793,13.02413-17.13065,53.83891-73.58535,57.3014-69.8821s7.60354,15.67737,11.8331,24.0287c4.70603,9.29211,31.9287,19.51374,42.9762,53.40882,8.08379,24.80208,1.50463,34.20146,1.50463,34.20146-24.00459,9.87738-53.82799,1.57785-64.23829-2.12818-6.91501-2.46172-17.84906,13.70774-6.33491,20.02681s46.5686,18.82828,87.91515,1.81263c10.6087-4.36588,15.35647-50.17157-6.30228-81.91209-10.64009-15.59288-28.2835-31.99459-34.76613-38.16307-8.06563-7.67476-15.95868-38.70461-26.85792-41.26788Z"/><path class="cls-1" d="m116.55305,67.41025c6.3275,4.21834,22.47423,13.84979,28.8253,56.57151,3.61451,24.31371,27.38296,11.6658,23.20085-7.03056-10.0638-44.9907-20.60207-67.35984-53.65175-74.8305-7.98603-1.80519-23.60755-3.53395-22.90449,11.93328.70306,15.46723,4.36554,37.63297-7.10743,63.27325-13.13669,29.35842-47.77879,38.84048-73.56517,95.77913-8.02852,17.7277-22.40509,74.68856,5.90828,117.96694,24.66288,37.69843,69.46277,75.89935,116.66578,76.32312,70.83156.6359,150.19031.23735,219.26557,0,11.08851-.0381,13.56311-24.31403-3.64506-23.84532-47.02421,1.28081-195.49497.2949-211.34362.93741-34.6841,1.40611-84.12414-31.88745-99.851-60.76801-26.68621-49.00613-10.16342-86.87086,1.09613-111.5686,15.28655-33.53093,56.51254-57.70097,69.89091-89.20023,9.76998-23.00333,7.21569-55.54143,7.21569-55.54143Z"/><path class="cls-1" d="m203.63693,271.14909c30.75431-22.25487,56.47148-21.16292,72.83287-12.17792,0,0,.84025-5.52533.30755-10.99047-1.24135-12.73544,20.988-14.36036,21.7055-1.12108.58023,10.70637,1.31755,23.42038,1.31755,23.42038,19.89218,16.31618,34.59238,69.48204,20.42626,90.01119-7.19853,10.43191-21.9285,1.21778-19.34804-10.64542,2.58045-11.8632,7.65377-30.77615-6.15476-51.40137-10.0009-14.93793-29.5942-24.18158-44.73472-22.0375-15.14052,2.14408-25.76747,7.31381-32.90141,12.62352-10.06372,7.49032-23.9741-10.06631-13.4508-17.68133Z"/><path class="cls-1" d="m278.98859,214.61228c8.95813,8.50664,36.65767,26.28853,40.26748,32.32161,4.76014,7.95564,2.55517,6.54884,4.68092,17.20875,3.90845,19.59948,28.83084,8.7339,25.66966-2.5144-3.16632-11.26659-3.6111-23.44843-17.32015-35.20351-12.36379-10.60157-14.52334-12.14929-28.65092-23.12381-2.36469-1.83693,4.24855-17.5836,6.50135-21.88999,3.89242-7.44066-20.09752-15.43421-25.06864-5.48083-4.61176,9.23387-16.81127,28.49148-6.0797,38.68218Z"/></g></svg>